<svg width="22" height="22" viewBox="0 0 22 22" fill="none" xmlns="http://www.w3.org/2000/svg">
<path d="M1.132 12.6298C0.952624 11.5505 0.952624 10.449 1.132 9.36977C2.234 9.39577 3.224 8.86777 3.609 7.93877C3.994 7.00877 3.667 5.93477 2.869 5.17577C3.50541 4.28505 4.28456 3.50557 5.175 2.86877C5.935 3.66677 7.009 3.99377 7.939 3.60877C8.869 3.22377 9.396 2.23277 9.369 1.13177C10.4489 0.952172 11.5511 0.952172 12.631 1.13177C12.604 2.23377 13.132 3.22377 14.061 3.60877C14.991 3.99377 16.065 3.66677 16.824 2.86877C17.7147 3.50518 18.4942 4.28433 19.131 5.17477C18.333 5.93477 18.006 7.00877 18.391 7.93877C18.776 8.86877 19.767 9.39577 20.868 9.36877C21.0476 10.4487 21.0476 11.5508 20.868 12.6308C19.766 12.6038 18.776 13.1318 18.391 14.0608C18.006 14.9908 18.333 16.0648 19.131 16.8238C18.4946 17.7145 17.7154 18.494 16.825 19.1308C16.065 18.3328 14.991 18.0058 14.061 18.3908C13.131 18.7758 12.604 19.7668 12.631 20.8678C11.5511 21.0474 10.4489 21.0474 9.369 20.8678C9.396 19.7658 8.868 18.7758 7.939 18.3908C7.009 18.0058 5.935 18.3328 5.176 19.1308C4.28529 18.4944 3.5058 17.7152 2.869 16.8248C3.667 16.0648 3.994 14.9908 3.609 14.0608C3.224 13.1308 2.233 12.6038 1.132 12.6308V12.6298ZM11 13.9998C11.7956 13.9998 12.5587 13.6837 13.1213 13.1211C13.6839 12.5585 14 11.7954 14 10.9998C14 10.2041 13.6839 9.44106 13.1213 8.87845C12.5587 8.31584 11.7956 7.99977 11 7.99977C10.2043 7.99977 9.44129 8.31584 8.87868 8.87845C8.31607 9.44106 8 10.2041 8 10.9998C8 11.7954 8.31607 12.5585 8.87868 13.1211C9.44129 13.6837 10.2043 13.9998 11 13.9998V13.9998Z" fill="#05527E"/>
</svg>
